<svg id="Grupo_1099686" data-name="Grupo 1099686" xmlns="http://www.w3.org/2000/svg" xmlns:xlink="http://www.w3.org/1999/xlink" width="85.923" height="85.923" viewBox="0 0 85.923 85.923">
  <defs>
    <clipPath id="clip-path">
      <rect id="Rectángulo_401444" data-name="Rectángulo 401444" width="46.241" height="60.328" fill="none"/>
    </clipPath>
  </defs>
  <g id="Grupo_1099328" data-name="Grupo 1099328" transform="translate(0 0)">
    <g id="Grupo_1098744" data-name="Grupo 1098744" transform="translate(0 0)">
      <g id="Grupo_1098741" data-name="Grupo 1098741">
        <g id="Rectángulo_400898" data-name="Rectángulo 400898" fill="#fff" stroke="#fff" stroke-width="3" opacity="0.859">
          <rect width="85.923" height="85.923" rx="42.962" stroke="none"/>
          <rect x="1.5" y="1.5" width="82.923" height="82.923" rx="41.462" fill="none"/>
        </g>
        <g id="Rectángulo_400907" data-name="Rectángulo 400907" transform="translate(0)" fill="none" stroke="#fff" stroke-width="3">
          <rect width="85.923" height="85.923" rx="42.962" stroke="none"/>
          <rect x="1.5" y="1.5" width="82.923" height="82.923" rx="41.462" fill="none"/>
        </g>
      </g>
    </g>
  </g>
  <g id="Grupo_1099637" data-name="Grupo 1099637" transform="translate(19.842 12.797)">
    <g id="Grupo_1099636" data-name="Grupo 1099636" transform="translate(0 0)" clip-path="url(#clip-path)">
      <path id="Trazado_876500" data-name="Trazado 876500" d="M22.1,2.639,20.605.2a.339.339,0,0,0-.451-.165l-.615.281a.339.339,0,0,0-.165.449l.88,2.725a.316.316,0,0,0,.13.141L23.2,9.819a.989.989,0,0,0,1.781-.854l-2.86-6.12a.331.331,0,0,0-.019-.208" transform="translate(1.905 0)" fill="#8c9aa8"/>
      <path id="Trazado_876501" data-name="Trazado 876501" d="M35.317,23.44c11.185,24.244,9.4,25.067,7.211,26.077S38.561,51.346,27.377,27.1a52.958,52.958,0,0,1-3.748-11.4c-.288-1.519-2.406-8.2-2.406-8.2a.9.9,0,0,1,.435-1.2l1.551-.715a.9.9,0,0,1,1.191.449s3.749,6,4.665,7.153a52.429,52.429,0,0,1,6.252,10.25" transform="translate(2.082 0.542)" fill="#198762"/>
      <path id="Trazado_876502" data-name="Trazado 876502" d="M35.094,22.751c11.185,24.244,9.4,25.067,7.211,26.077s-3.967,1.829-15.15-22.415a52.958,52.958,0,0,1-3.748-11.4L28.842,12.5a52.429,52.429,0,0,1,6.252,10.25" transform="translate(2.305 1.231)" fill="#34b67a"/>
      <path id="Trazado_876503" data-name="Trazado 876503" d="M38.077,34.976a1.709,1.709,0,0,1-.835,2.266l-.609.278a1.7,1.7,0,0,1-2.265-.833l-7.5-16.254a1.709,1.709,0,0,1,.838-2.264l.61-.278a1.7,1.7,0,0,1,2.266.833Z" transform="translate(2.631 1.746)" fill="#f2f2f2"/>
      <path id="Trazado_876504" data-name="Trazado 876504" d="M35.236,37.937a2.038,2.038,0,0,1-1.158-1.07l-7.5-16.253a2.064,2.064,0,0,1,1.01-2.735l.61-.282A2.114,2.114,0,0,1,30.936,18.6l7.5,16.254A2.064,2.064,0,0,1,37.422,37.6l-.609.279a2.037,2.037,0,0,1-1.577.062M29.529,18.2a1.334,1.334,0,0,0-1.031.042l-.611.281a1.352,1.352,0,0,0-.662,1.792l7.5,16.253a1.384,1.384,0,0,0,1.793.661l.609-.281a1.352,1.352,0,0,0,.662-1.792L30.29,18.9a1.343,1.343,0,0,0-.76-.7" transform="translate(2.599 1.715)" fill="#666"/>
      <path id="Trazado_876505" data-name="Trazado 876505" d="M36.127,33.416a.285.285,0,0,1-.141.377L34.65,34.4a.284.284,0,0,1-.235-.516l1.337-.609a.285.285,0,0,1,.376.141" transform="translate(3.373 3.275)" fill="#8c9aa8"/>
      <path id="Trazado_876506" data-name="Trazado 876506" d="M35.4,31.812a.281.281,0,0,1-.141.373l-1.337.609a.284.284,0,0,1-.235-.516l1.336-.607a.283.283,0,0,1,.377.142" transform="translate(3.301 3.116)" fill="#8c9aa8"/>
      <path id="Trazado_876507" data-name="Trazado 876507" d="M34.665,30.206a.279.279,0,0,1-.141.373l-1.336.609a.283.283,0,1,1-.235-.515l1.337-.607a.281.281,0,0,1,.375.141" transform="translate(3.229 2.958)" fill="#8c9aa8"/>
      <path id="Trazado_876508" data-name="Trazado 876508" d="M33.935,28.6a.283.283,0,0,1-.14.375l-1.336.609a.286.286,0,0,1-.377-.141.283.283,0,0,1,.141-.376l1.337-.607a.279.279,0,0,1,.375.141" transform="translate(3.157 2.8)" fill="#8c9aa8"/>
      <path id="Trazado_876509" data-name="Trazado 876509" d="M33.206,27a.282.282,0,0,1-.142.375l-1.337.61a.284.284,0,0,1-.235-.517l1.337-.607a.283.283,0,0,1,.377.141" transform="translate(3.086 2.642)" fill="#8c9aa8"/>
      <path id="Trazado_876510" data-name="Trazado 876510" d="M32.474,25.39a.282.282,0,0,1-.14.376L31,26.374a.284.284,0,0,1-.235-.516l1.336-.609a.285.285,0,0,1,.376.141" transform="translate(3.014 2.484)" fill="#8c9aa8"/>
      <path id="Trazado_876511" data-name="Trazado 876511" d="M31.744,23.787a.278.278,0,0,1-.141.371l-1.336.61a.283.283,0,1,1-.235-.515l1.337-.607a.28.28,0,0,1,.375.142" transform="translate(2.942 2.326)" fill="#8c9aa8"/>
      <path id="Trazado_876512" data-name="Trazado 876512" d="M31.014,22.179a.284.284,0,0,1-.141.377l-1.337.609a.284.284,0,0,1-.376-.142.287.287,0,0,1,.14-.376l1.338-.607a.285.285,0,0,1,.376.14" transform="translate(2.87 2.168)" fill="#8c9aa8"/>
      <path id="Trazado_876513" data-name="Trazado 876513" d="M30.284,20.575a.281.281,0,0,1-.141.375l-1.337.609a.283.283,0,1,1-.234-.515l1.336-.607a.281.281,0,0,1,.376.14" transform="translate(2.798 2.01)" fill="#8c9aa8"/>
      <path id="Trazado_876514" data-name="Trazado 876514" d="M29.553,18.97a.281.281,0,0,1-.14.375l-1.337.61a.285.285,0,0,1-.235-.518l1.336-.607a.284.284,0,0,1,.376.142" transform="translate(2.726 1.852)" fill="#8c9aa8"/>
      <path id="Trazado_876515" data-name="Trazado 876515" d="M39.184,38.295a1.745,1.745,0,1,1-2.311-.866,1.745,1.745,0,0,1,2.311.866" transform="translate(3.531 3.671)" fill="#198762"/>
      <path id="Trazado_876516" data-name="Trazado 876516" d="M3.3,7.547l8.223,18.36c-3.165-1.182-8.143-.859-10.5-6.817C-.894,14.249-.107,9.233,3.3,7.547" transform="translate(0 0.743)" fill="#acbac8"/>
      <path id="Trazado_876517" data-name="Trazado 876517" d="M7.144,23.775a23.674,23.674,0,0,1,10.139,4.561c.36.305.711.634,1.045.979,0,0-.008,0,0,.005a2.866,2.866,0,0,0,1.387.819,2.113,2.113,0,0,0,2.172-.707,3.122,3.122,0,0,0-.366-4.005,3.665,3.665,0,0,0-.293-.291q-.247-.26-.515-.5a20.286,20.286,0,0,0-1.944-1.614A29.56,29.56,0,0,0,7.2,18.165a2.266,2.266,0,0,0-2.556,2.416,3.2,3.2,0,0,0,2.5,3.194" transform="translate(0.457 1.786)" fill="#bccad8"/>
      <path id="Trazado_876518" data-name="Trazado 876518" d="M7.144,23.775a23.674,23.674,0,0,1,10.139,4.561c.36.305.711.634,1.045.979,0,0-.008,0,0,.005a2.866,2.866,0,0,0,1.387.819,2.113,2.113,0,0,0,2.172-.707,3.122,3.122,0,0,0-.366-4.005,3.665,3.665,0,0,0-.293-.291q-.247-.26-.515-.5a20.286,20.286,0,0,0-1.944-1.614A29.56,29.56,0,0,0,7.2,18.165a2.266,2.266,0,0,0-2.556,2.416,3.2,3.2,0,0,0,2.5,3.194" transform="translate(0.457 1.786)" fill="#acbac8"/>
      <path id="Trazado_876519" data-name="Trazado 876519" d="M26.56,54.2a2.577,2.577,0,0,0,2.341.156,2.5,2.5,0,0,0,1.317-1.492c1.378-3.945.16-10.946-3.178-18.283a44.271,44.271,0,0,0-5.631-9.348,3.337,3.337,0,0,0-1.3-.989,2.369,2.369,0,0,0-.6-.189c-.767-.136-.291,1.622-.873,2.19-1,.981-2.335,1.134-1.514,2.486,0,0-.007,0,0,.007a3.806,3.806,0,0,0,.291.419c.2.244.393.492.579.755a38.5,38.5,0,0,1,4.036,6.949c2.721,5.981,3.494,11.182,2.849,13.04a3.7,3.7,0,0,0,1.68,4.3" transform="translate(1.661 2.368)" fill="#cc3b2f"/>
      <path id="Trazado_876520" data-name="Trazado 876520" d="M4.1,7.085l8.438,18.261c1.189-3.161,4.7-6.7,1.761-12.394C11.911,8.324,7.612,5.62,4.1,7.085" transform="translate(0.404 0.658)" fill="#bccad8"/>
      <path id="Trazado_876521" data-name="Trazado 876521" d="M14.127,20.747a24.161,24.161,0,0,0-1.6,3.279c-.008,0-.009.014-.012.023A20.907,20.907,0,0,0,10.9,31.388c0,.015,0,.032,0,.046-.007.458.01.922.049,1.382l0,.005a2.583,2.583,0,0,1-.01.612,2.682,2.682,0,0,1-.282.973A2.122,2.122,0,0,1,8.7,35.579a3.045,3.045,0,0,1-2.663-2.3,3.179,3.179,0,0,1-.116-.61A3.49,3.49,0,0,1,5.9,32.26c-.021-.239-.034-.478-.037-.717,0-.1-.007-.179-.007-.267a20.683,20.683,0,0,1,.067-2.259A29.332,29.332,0,0,1,9.377,17.946c.267-.49.448-.788.482-.844a2.263,2.263,0,0,1,3.5-.338,3.2,3.2,0,0,1,.766,3.983" transform="translate(0.576 1.585)" fill="#bccad8"/>
      <path id="Trazado_876522" data-name="Trazado 876522" d="M14.127,20.747a24.161,24.161,0,0,0-1.6,3.279c-.008,0-.009.014-.012.023A20.907,20.907,0,0,0,10.9,31.388c0,.015,0,.032,0,.046-.007.458.01.922.049,1.382l0,.005a2.583,2.583,0,0,1-.01.612,2.682,2.682,0,0,1-.282.973A2.122,2.122,0,0,1,8.7,35.579a3.045,3.045,0,0,1-2.663-2.3,3.179,3.179,0,0,1-.116-.61A3.49,3.49,0,0,1,5.9,32.26c-.021-.239-.034-.478-.037-.717,0-.1-.007-.179-.007-.267a20.683,20.683,0,0,1,.067-2.259A29.332,29.332,0,0,1,9.377,17.946c.267-.49.448-.788.482-.844a2.263,2.263,0,0,1,3.5-.338,3.2,3.2,0,0,1,.766,3.983" transform="translate(0.576 1.585)" fill="#bccad8"/>
      <path id="Trazado_876523" data-name="Trazado 876523" d="M23.992,55.3a2.587,2.587,0,0,1-1.424,1.867,2.494,2.494,0,0,1-1.989.012c-3.879-1.552-8.357-7.07-11.7-14.407A44.215,44.215,0,0,1,5.535,32.384a2.679,2.679,0,0,1-.044-.482,2.99,2.99,0,0,1,.149-1.145,2.5,2.5,0,0,1,.254-.58c.4-.667,1.309.347,2.119.282,1.4-.107,2.5-.516,2.976.992l0,0a3.476,3.476,0,0,1,.124.5c.007.044.015.08.022.124.048.266.1.534.167.811a38.333,38.333,0,0,0,2.589,7.6c2.721,5.982,6.132,9.981,7.959,10.716A3.711,3.711,0,0,1,23.992,55.3" transform="translate(0.54 2.949)" fill="#dc4437"/>
      <path id="Trazado_876524" data-name="Trazado 876524" d="M11.109,30.076a13.566,13.566,0,0,0,.049,1.383l0,.005a3.461,3.461,0,0,1,.124.494c.007.044.015.08.022.124l-.156-.007-4.908-.153-.584-.014-.9-.029a1.113,1.113,0,0,1-.986-1.028.9.9,0,0,1,.466-.914.8.8,0,0,1,.332-.064l1.485.043Z" transform="translate(0.371 2.942)" fill="#dc4437"/>
      <path id="Trazado_876525" data-name="Trazado 876525" d="M16.22,27.969a13.16,13.16,0,0,1,1.007.944l0,.008a3.85,3.85,0,0,0,.292.417c.029.034.048.067.079.1l.1-.125,3.109-3.8.375-.45.568-.7a1.1,1.1,0,0,0-.127-1.416.889.889,0,0,0-.993-.248.741.741,0,0,0-.268.208l-.944,1.146Z" transform="translate(1.598 2.229)" fill="#cc3b2f"/>
      <path id="Trazado_876526" data-name="Trazado 876526" d="M11.452,20.879a1.577,1.577,0,0,1-.6,2.133,1.576,1.576,0,0,1-2-.95,1.576,1.576,0,0,1,.6-2.134,1.579,1.579,0,0,1,2,.951" transform="translate(0.854 1.952)" fill="#9caab8"/>
    </g>
  </g>
</svg>
